<mxfile host="app.diagrams.net" modified="2023-05-13T06:13:11.465Z" agent="Mozilla/5.0 (Macintosh; Intel Mac OS X 10_15_7) AppleWebKit/537.36 (KHTML, like Gecko) Chrome/113.0.0.0 Safari/537.36 OPR/100.0.0.0 (Edition developer)" version="21.3.0" etag="Qjs9xDhuVZj20I2kTVXD" type="github">
  <diagram name="Page-1" id="Wnmk0hbVjhr20Ps4qphQ">
    <mxGraphModel>
      <root>
        <mxCell id="0" />
        <mxCell id="1" parent="0" />
      </root>
    </mxGraphModel>
  </diagram>
</mxfile>
